<svg xmlns="http://www.w3.org/2000/svg" width="900" height="420" viewBox="0 0 900 420">
  <rect width="900" height="420" fill="white"/>
  <text x="70" y="22" font-family="monospace" font-size="16">Go1 pretrained vs 1/8-budget train reward curve (x = logged global timesteps)</text>
  <line x1="70" y1="360" x2="860" y2="360" stroke="#222"/>
  <line x1="70" y1="30" x2="70" y2="360" stroke="#222"/>
  <line x1="168.8" y1="30" x2="168.8" y2="360" stroke="#999" stroke-dasharray="5 5"/>
  <text x="173.8" y="48" font-family="monospace" font-size="12" fill="#555">1/8 run ends</text>
  <polyline fill="none" stroke="#1f77b4" stroke-width="2" points="70.0,360.0 70.4,352.7 70.8,352.1 71.2,351.6 71.6,351.1 72.0,351.2 72.4,351.1 72.8,350.8 73.2,350.7 73.6,350.7 74.0,350.8 74.4,350.8 74.8,350.8 75.2,351.0 75.6,350.9 76.0,350.8 76.4,350.7 76.8,350.5 77.2,349.8 77.5,349.7 77.9,349.5 78.3,349.2 78.7,348.9 79.1,348.8 79.5,348.2 79.9,347.9 80.3,347.3 80.7,347.2 81.1,347.0 81.5,346.9 81.9,346.7 82.3,346.5 82.7,346.1 83.1,345.5 83.5,345.3 83.9,345.0 84.3,344.9 84.7,344.4 85.1,344.1 85.5,343.9 85.8,343.8 86.2,343.7 86.6,343.6 87.0,343.1 87.4,342.9 87.8,342.8 88.2,342.6 88.6,342.4 89.0,342.5 89.4,342.1 89.8,341.9 90.2,341.9 90.6,341.8 91.0,341.7 91.4,341.7 91.8,341.6 92.2,341.5 92.6,341.4 93.0,341.3 93.4,341.3 93.8,341.1 94.1,341.9 94.5,341.6 94.9,341.3 95.3,341.0 95.7,340.7 96.1,340.6 96.5,340.4 96.9,340.1 97.3,340.2 97.7,340.2 98.1,340.0 98.5,339.9 98.9,339.8 99.3,339.9 99.7,339.6 100.1,339.6 100.5,339.7 100.9,339.4 101.3,339.7 101.7,339.8 102.0,340.2 102.4,340.0 102.8,339.6 103.2,340.0 103.6,339.8 104.0,339.4 104.4,339.1 104.8,339.2 105.2,338.9 105.6,338.9 106.0,338.8 106.4,338.6 106.8,338.4 107.2,338.3 107.6,338.3 108.0,338.1 108.4,338.3 108.8,338.3 109.2,338.1 109.6,338.1 110.0,338.1 110.3,338.3 110.7,338.5 111.1,338.4 111.5,338.0 111.9,338.2 112.3,338.1 112.7,338.2 113.1,338.0 113.5,337.9 113.9,337.8 114.3,337.8 114.7,337.8 115.1,337.6 115.5,337.5 115.9,337.6 116.3,338.0 116.7,337.8 117.1,338.0 117.5,337.7 117.9,337.6 118.3,337.5 118.6,337.3 119.0,337.4 119.4,337.3 119.8,337.3 120.2,337.4 120.6,337.2 121.0,337.0 121.4,336.9 121.8,337.1 122.2,336.8 122.6,336.8 123.0,336.5 123.4,336.5 123.8,336.5 124.2,336.6 124.6,336.2 125.0,336.3 125.4,336.0 125.8,335.6 126.2,335.6 126.5,335.9 126.9,335.6 127.3,335.4 127.7,335.6 128.1,335.5 128.5,335.2 128.9,335.1 129.3,334.8 129.7,334.9 130.1,334.9 130.5,335.0 130.9,334.7 131.3,334.4 131.7,334.4 132.1,335.3 132.5,334.5 132.9,334.9 133.3,334.6 133.7,333.8 134.1,333.8 134.5,333.5 134.8,334.0 135.2,334.5 135.6,333.7 136.0,333.4 136.4,333.5 136.8,333.5 137.2,333.8 137.6,334.6 138.0,334.8 138.4,334.0 138.8,333.6 139.2,333.6 139.6,334.6 140.0,334.9 140.4,333.7 140.8,332.8 141.2,332.6 141.6,332.6 142.0,332.5 142.4,332.2 142.8,331.9 143.1,331.2 143.5,331.4 143.9,331.7 144.3,331.4 144.7,330.7 145.1,330.3 145.5,330.4 145.9,330.5 146.3,330.3 146.7,329.2 147.1,328.5 147.5,328.3 147.9,328.1 148.3,328.0 148.7,328.8 149.1,328.4 149.5,329.7 149.9,330.9 150.3,329.7 150.7,329.2 151.1,328.6 151.4,328.3 151.8,328.8 152.2,328.4 152.6,327.9 153.0,327.1 153.4,327.4 153.8,326.9 154.2,326.4 154.6,326.6 155.0,326.7 155.4,327.0 155.8,324.1 156.2,324.8 156.6,323.8 157.0,323.0 157.4,322.6 157.8,322.6 158.2,323.6 158.6,323.2 159.0,323.4 159.3,322.3 159.7,320.9 160.1,318.8 160.5,319.7 160.9,319.0 161.3,317.8 161.7,316.3 162.1,318.5 162.5,317.7 162.9,318.5 163.3,322.7 163.7,328.0 164.1,322.6 164.5,319.4 164.9,318.4 165.3,315.6 165.7,316.9 166.1,314.8 166.5,314.3 166.9,313.2 167.3,311.6 167.6,314.0 168.0,316.7 168.4,314.2 168.8,312.5 169.2,313.1 169.6,310.7 170.0,309.7 170.4,310.7 170.8,314.0 171.2,310.8 171.6,308.2 172.0,306.5 172.4,307.0 172.8,305.7 173.2,309.4 173.6,305.1 174.0,302.4 174.4,307.6 174.8,306.2 175.2,308.0 175.6,305.8 175.9,301.5 176.3,304.2 176.7,304.5 177.1,306.2 177.5,302.6 177.9,300.8 178.3,299.6 178.7,292.3 179.1,300.8 179.5,305.1 179.9,306.8 180.3,304.9 180.7,300.4 181.1,301.3 181.5,300.2 181.9,294.8 182.3,299.6 182.7,303.9 183.1,297.4 183.5,297.2 183.9,296.1 184.2,298.3 184.6,294.6 185.0,294.8 185.4,296.7 185.8,292.7 186.2,285.9 186.6,285.1 187.0,288.4 187.4,286.7 187.8,283.4 188.2,285.8 188.6,283.3 189.0,282.2 189.4,281.0 189.8,283.4 190.2,286.2 190.6,282.4 191.0,283.4 191.4,280.7 191.8,285.4 192.1,282.9 192.5,289.2 192.9,289.6 193.3,287.7 193.7,285.8 194.1,280.0 194.5,280.1 194.9,279.4 195.3,279.1 195.7,274.5 196.1,273.9 196.5,270.3 196.9,270.7 197.3,260.6 197.7,276.2 198.1,289.8 198.5,284.6 198.9,277.3 199.3,274.8 199.7,275.3 200.1,280.0 200.4,279.4 200.8,270.3 201.2,273.9 201.6,273.0 202.0,262.3 202.4,267.5 202.8,271.3 203.2,270.3 203.6,275.0 204.0,265.5 204.4,287.3 204.8,288.8 205.2,283.6 205.6,276.7 206.0,274.0 206.4,269.6 206.8,261.7 207.2,257.8 207.6,261.7 208.0,259.3 208.4,271.6 208.7,263.3 209.1,266.2 209.5,263.7 209.9,263.6 210.3,255.4 210.7,254.0 211.1,249.1 211.5,270.3 211.9,271.8 212.3,271.4 212.7,269.5 213.1,261.3 213.5,253.4 213.9,248.5 214.3,241.3 214.7,247.3 215.1,257.3 215.5,258.5 215.9,255.9 216.3,256.4 216.7,256.7 217.0,258.0 217.4,252.0 217.8,246.2 218.2,254.0 218.6,254.2 219.0,252.1 219.4,241.2 219.8,240.8 220.2,257.2 220.6,249.4 221.0,245.6 221.4,268.7 221.8,274.0 222.2,268.7 222.6,263.3 223.0,258.2 223.4,245.3 223.8,248.9 224.2,238.2 224.6,212.0 224.9,231.7 225.3,244.8 225.7,247.2 226.1,238.1 226.5,234.9 226.9,267.5 227.3,269.4 227.7,259.7 228.1,256.5 228.5,255.9 228.9,258.6 229.3,248.0 229.7,225.8 230.1,234.0 230.5,225.6 230.9,231.7 231.3,238.7 231.7,225.1 232.1,254.3 232.5,259.7 232.9,262.2 233.2,251.1 233.6,256.1 234.0,252.7 234.4,255.2 234.8,247.7 235.2,223.6 235.6,227.0 236.0,225.0 236.4,240.6 236.8,227.7 237.2,234.9 237.6,235.9 238.0,248.6 238.4,223.7 238.8,229.7 239.2,225.9 239.6,213.9 240.0,209.9 240.4,270.6 240.8,287.3 241.2,276.4 241.5,271.5 241.9,252.6 242.3,246.1 242.7,245.9 243.1,222.6 243.5,170.7 243.9,196.6 244.3,197.6 244.7,222.8 245.1,221.0 245.5,232.0 245.9,216.2 246.3,230.7 246.7,211.8 247.1,196.9 247.5,241.6 247.9,274.0 248.3,261.0 248.7,263.5 249.1,248.0 249.5,234.2 249.8,235.1 250.2,213.7 250.6,183.2 251.0,229.2 251.4,242.1 251.8,226.2 252.2,249.5 252.6,249.8 253.0,245.1 253.4,228.1 253.8,199.8 254.2,208.7 254.6,224.7 255.0,198.8 255.4,194.4 255.8,199.1 256.2,213.4 256.6,202.9 257.0,204.8 257.4,190.1 257.7,198.8 258.1,217.2 258.5,247.1 258.9,253.1 259.3,237.7 259.7,225.5 260.1,227.5 260.5,239.2 260.9,227.6 261.3,141.5 261.7,201.8 262.1,235.7 262.5,215.5 262.9,210.4 263.3,184.5 263.7,228.4 264.1,228.6 264.5,218.1 264.9,197.8 265.3,212.4 265.7,220.0 266.0,222.9 266.4,183.7 266.8,185.6 267.2,218.2 267.6,218.2 268.0,200.5 268.4,219.9 268.8,208.0 269.2,223.9 269.6,220.9 270.0,205.2 270.4,216.7 270.8,225.4 271.2,209.1 271.6,214.3 272.0,204.1 272.4,190.8 272.8,199.3 273.2,242.9 273.6,250.0 274.0,252.9 274.3,241.8 274.7,227.4 275.1,235.7 275.5,205.3 275.9,184.4 276.3,152.4 276.7,214.1 277.1,227.1 277.5,226.5 277.9,231.7 278.3,233.4 278.7,223.4 279.1,224.2 279.5,187.4 279.9,204.2 280.3,193.4 280.7,203.9 281.1,207.6 281.5,205.9 281.9,212.9 282.3,208.4 282.6,202.9 283.0,202.0 283.4,210.7 283.8,209.3 284.2,216.6 284.6,210.9 285.0,207.8 285.4,227.3 285.8,201.4 286.2,222.0 286.6,247.5 287.0,263.9 287.4,256.4 287.8,246.4 288.2,246.6 288.6,243.2 289.0,208.2 289.4,239.1 289.8,255.7 290.2,266.9 290.5,257.9 290.9,258.5 291.3,237.2 291.7,255.4 292.1,230.5 292.5,184.9 292.9,185.6 293.3,217.0 293.7,224.2 294.1,240.9 294.5,209.7 294.9,208.7 295.3,209.7 295.7,183.6 296.1,170.0 296.5,198.3 296.9,218.2 297.3,221.7 297.7,217.1 298.1,207.3 298.5,212.0 298.8,213.5 299.2,193.5 299.6,169.8 300.0,202.8 300.4,209.8 300.8,211.9 301.2,200.0 301.6,196.5 302.0,198.3 302.4,189.0 302.8,193.8 303.2,197.0 303.6,210.7 304.0,230.0 304.4,218.8 304.8,228.7 305.2,217.9 305.6,214.6 306.0,205.8 306.4,191.4 306.8,197.0 307.1,206.1 307.5,197.4 307.9,216.4 308.3,217.1 308.7,207.5 309.1,213.9 309.5,216.3 309.9,212.7 310.3,211.8 310.7,224.7 311.1,208.6 311.5,223.1 311.9,207.1 312.3,207.6 312.7,222.3 313.1,200.2 313.5,177.3 313.9,181.6 314.3,197.0 314.7,218.1 315.0,195.0 315.4,196.3 315.8,199.1 316.2,192.6 316.6,173.7 317.0,180.6 317.4,200.7 317.8,199.6 318.2,218.0 318.6,207.2 319.0,206.3 319.4,186.3 319.8,187.1 320.2,141.9 320.6,189.1 321.0,205.6 321.4,214.7 321.8,186.3 322.2,206.1 322.6,200.8 323.0,202.4 323.3,181.9 323.7,179.1 324.1,171.5 324.5,189.9 324.9,183.4 325.3,214.0 325.7,219.2 326.1,194.2 326.5,233.0 326.9,262.5 327.3,247.2 327.7,250.3 328.1,235.4 328.5,208.8 328.9,229.9 329.3,207.0 329.7,121.1 330.1,168.4 330.5,211.6 330.9,223.0 331.3,214.6 331.6,184.3 332.0,204.6 332.4,191.4 332.8,110.0 333.2,137.3 333.6,172.4 334.0,180.9 334.4,198.1 334.8,171.5 335.2,188.0 335.6,184.5 336.0,161.2 336.4,147.0 336.8,180.1 337.2,192.5 337.6,195.5 338.0,163.1 338.4,187.2 338.8,194.9 339.2,170.2 339.6,152.4 339.9,165.1 340.3,197.5 340.7,198.0 341.1,187.9 341.5,199.4 341.9,209.3 342.3,221.7 342.7,198.7 343.1,213.2 343.5,209.2 343.9,203.6 344.3,220.2 344.7,196.0 345.1,193.2 345.5,223.6 345.9,218.0 346.3,214.9 346.7,204.5 347.1,223.5 347.5,232.2 347.8,198.8 348.2,177.2 348.6,192.4 349.0,205.0 349.4,191.9 349.8,174.3 350.2,168.1 350.6,182.2 351.0,186.7 351.4,170.7 351.8,165.0 352.2,176.5 352.6,170.2 353.0,177.0 353.4,176.8 353.8,189.4 354.2,193.4 354.6,181.2 355.0,173.0 355.4,198.8 355.8,190.4 356.1,171.9 356.5,187.3 356.9,201.1 357.3,204.8 357.7,201.7 358.1,187.5 358.5,175.2 358.9,176.2 359.3,182.1 359.7,224.1 360.1,217.5 360.5,211.6 360.9,225.5 361.3,211.7 361.7,209.5 362.1,217.2 362.5,118.7 362.9,112.1 363.3,165.7 363.7,189.7 364.1,190.9 364.4,168.0 364.8,176.0 365.2,198.5 365.6,157.3 366.0,129.5 366.4,166.0 366.8,177.9 367.2,191.2 367.6,202.6 368.0,196.7 368.4,200.9 368.8,176.9 369.2,147.5 369.6,167.8 370.0,161.4 370.4,174.4 370.8,197.3 371.2,182.7 371.6,206.1 372.0,182.4 372.4,159.9 372.7,161.5 373.1,149.6 373.5,101.9 373.9,168.9 374.3,186.7 374.7,207.4 375.1,186.0 375.5,192.7 375.9,165.8 376.3,182.1 376.7,157.8 377.1,166.8 377.5,119.2 377.9,167.5 378.3,178.9 378.7,179.0 379.1,186.5 379.5,192.6 379.9,173.6 380.3,156.5 380.6,160.4 381.0,185.1 381.4,204.3 381.8,203.0 382.2,191.4 382.6,180.2 383.0,210.0 383.4,198.9 383.8,210.9 384.2,207.3 384.6,224.7 385.0,216.9 385.4,215.5 385.8,174.5 386.2,187.9 386.6,187.9 387.0,193.2 387.4,184.4 387.8,221.7 388.2,222.7 388.6,201.3 388.9,185.2 389.3,185.7 389.7,187.4 390.1,194.4 390.5,147.0 390.9,169.0 391.3,210.7 391.7,218.5 392.1,208.9 392.5,194.0 392.9,196.9 393.3,184.5 393.7,162.8 394.1,127.8 394.5,166.8 394.9,205.1 395.3,197.9 395.7,187.8 396.1,183.8 396.5,188.3 396.9,169.9 397.2,151.8 397.6,162.7 398.0,177.6 398.4,185.2 398.8,199.8 399.2,191.3 399.6,196.0 400.0,171.8 400.4,128.3 400.8,155.4 401.2,181.5 401.6,179.5 402.0,166.7 402.4,178.8 402.8,176.1 403.2,151.6 403.6,152.8 404.0,135.5 404.4,147.7 404.8,170.4 405.2,143.1 405.5,162.0 405.9,170.0 406.3,161.8 406.7,137.3 407.1,124.7 407.5,134.6 407.9,135.8 408.3,159.1 408.7,143.7 409.1,158.0 409.5,172.9 409.9,161.6 410.3,148.0 410.7,150.6 411.1,165.4 411.5,182.5 411.9,166.5 412.3,170.1 412.7,162.2 413.1,144.9 413.4,164.9 413.8,140.6 414.2,158.0 414.6,185.2 415.0,192.9 415.4,185.2 415.8,194.7 416.2,199.0 416.6,192.7 417.0,183.4 417.4,157.1 417.8,150.4 418.2,155.2 418.6,134.5 419.0,154.2 419.4,154.2 419.8,151.0 420.2,157.3 420.6,151.2 421.0,137.1 421.4,160.2 421.7,149.8 422.1,163.9 422.5,165.4 422.9,162.5 423.3,166.9 423.7,149.1 424.1,146.7 424.5,161.6 424.9,145.0 425.3,167.9 425.7,167.5 426.1,150.1 426.5,147.0 426.9,164.3 427.3,142.2 427.7,151.9 428.1,168.3 428.5,179.9 428.9,175.9 429.3,172.9 429.7,137.9 430.0,126.5 430.4,150.0 430.8,141.4 431.2,159.1 431.6,127.5 432.0,147.9 432.4,158.7 432.8,136.0 433.2,141.7 433.6,153.5 434.0,155.8 434.4,162.1 434.8,158.9 435.2,148.3 435.6,164.7 436.0,159.6 436.4,164.3 436.8,156.3 437.2,139.6 437.6,161.9 438.0,141.7 438.3,174.7 438.7,155.6 439.1,125.7 439.5,117.7 439.9,120.1 440.3,125.3 440.7,113.1 441.1,167.1 441.5,227.4 441.9,217.9 442.3,187.8 442.7,179.1 443.1,177.4 443.5,190.8 443.9,159.5 444.3,63.6 444.7,158.6 445.1,194.0 445.5,186.6 445.9,168.6 446.2,170.0 446.6,186.0 447.0,149.7 447.4,113.2 447.8,190.8 448.2,228.4 448.6,213.5 449.0,203.0 449.4,206.3 449.8,195.5 450.2,195.3 450.6,68.3 451.0,108.7 451.4,181.7 451.8,173.8 452.2,183.4 452.6,185.7 453.0,193.2 453.4,174.5 453.8,133.5 454.2,106.8 454.5,161.6 454.9,193.5 455.3,172.4 455.7,177.9 456.1,192.6 456.5,196.2 456.9,162.2 457.3,123.4 457.7,161.0 458.1,188.1 458.5,182.2 458.9,148.3 459.3,166.2 459.7,178.4 460.1,154.1 460.5,127.9 460.9,124.1 461.3,177.3 461.7,175.1 462.1,189.0 462.5,170.1 462.8,170.3 463.2,179.0 463.6,141.6 464.0,120.3 464.4,167.3 464.8,138.6 465.2,117.9 465.6,140.4 466.0,143.5 466.4,159.3 466.8,169.4 467.2,153.5 467.6,158.9 468.0,158.0 468.4,147.3 468.8,162.4 469.2,168.6 469.6,154.2 470.0,141.1 470.4,153.0 470.7,163.4 471.1,170.1 471.5,190.1 471.9,177.5 472.3,157.6 472.7,178.1 473.1,188.2 473.5,188.2 473.9,153.2 474.3,179.6 474.7,173.3 475.1,178.4 475.5,180.0 475.9,167.8 476.3,173.0 476.7,168.9 477.1,153.1 477.5,165.5 477.9,171.6 478.3,191.9 478.7,175.1 479.0,171.8 479.4,163.2 479.8,167.0 480.2,144.7 480.6,115.6 481.0,128.6 481.4,179.8 481.8,171.6 482.2,167.8 482.6,149.5 483.0,161.3 483.4,160.3 483.8,145.9 484.2,125.6 484.6,140.7 485.0,165.8 485.4,148.7 485.8,167.0 486.2,160.5 486.6,164.2 487.0,164.8 487.3,161.7 487.7,158.1 488.1,156.1 488.5,170.0 488.9,172.3 489.3,169.3 489.7,158.6 490.1,172.7 490.5,142.9 490.9,172.3 491.3,130.1 491.7,124.7 492.1,138.9 492.5,146.2 492.9,135.6 493.3,156.7 493.7,149.5 494.1,128.1 494.5,162.2 494.9,155.5 495.3,145.0 495.6,156.4 496.0,163.1 496.4,150.2 496.8,151.9 497.2,136.2 497.6,110.3 498.0,148.6 498.4,145.8 498.8,145.2 499.2,166.2 499.6,159.6 500.0,178.3 500.4,153.1 500.8,126.8 501.2,149.0 501.6,146.9 502.0,150.3 502.4,169.9 502.8,179.5 503.2,185.2 503.5,163.8 503.9,137.0 504.3,151.3 504.7,145.0 505.1,156.0 505.5,159.3 505.9,171.1 506.3,178.2 506.7,157.3 507.1,151.5 507.5,134.2 507.9,136.1 508.3,140.4 508.7,134.7 509.1,142.5 509.5,139.7 509.9,150.4 510.3,146.9 510.7,124.0 511.1,122.3 511.5,149.0 511.8,130.7 512.2,131.3 512.6,144.0 513.0,134.8 513.4,142.8 513.8,135.1 514.2,143.5 514.6,149.6 515.0,156.7 515.4,151.8 515.8,165.7 516.2,148.8 516.6,158.4 517.0,172.8 517.4,135.3 517.8,120.6 518.2,161.2 518.6,164.2 519.0,181.2 519.4,169.6 519.8,90.0 520.1,143.4 520.5,154.6 520.9,138.0 521.3,152.4 521.7,131.6 522.1,136.5 522.5,156.6 522.9,126.8 523.3,142.7 523.7,151.6 524.1,132.6 524.5,171.1 524.9,146.5 525.3,149.0 525.7,148.0 526.1,129.9 526.5,125.7 526.9,166.1 527.3,143.9 527.7,142.1 528.1,171.1 528.4,165.3 528.8,154.5 529.2,145.7 529.6,151.9 530.0,183.7 530.4,187.1 530.8,136.0 531.2,162.8 531.6,174.8 532.0,190.5 532.4,159.8 532.8,185.3 533.2,160.7 533.6,174.2 534.0,164.9 534.4,173.3 534.8,157.9 535.2,169.3 535.6,142.0 536.0,163.0 536.3,147.9 536.7,177.2 537.1,167.6 537.5,154.7 537.9,129.4 538.3,160.0 538.7,146.7 539.1,140.8 539.5,153.5 539.9,155.4 540.3,159.1 540.7,139.2 541.1,131.2 541.5,133.3 541.9,127.0 542.3,123.5 542.7,140.3 543.1,164.3 543.5,167.3 543.9,178.1 544.3,149.7 544.6,140.7 545.0,161.4 545.4,138.2 545.8,148.0 546.2,112.4 546.6,132.4 547.0,141.7 547.4,126.9 547.8,140.5 548.2,120.0 548.6,107.6 549.0,138.5 549.4,145.3 549.8,136.5 550.2,158.9 550.6,131.2 551.0,145.3 551.4,152.3 551.8,160.3 552.2,153.7 552.6,168.8 552.9,158.4 553.3,168.6 553.7,140.9 554.1,149.5 554.5,124.3 554.9,113.5 555.3,149.4 555.7,172.7 556.1,164.9 556.5,170.6 556.9,161.7 557.3,146.2 557.7,156.8 558.1,139.4 558.5,148.6 558.9,166.5 559.3,183.7 559.7,171.0 560.1,168.0 560.5,174.3 560.9,160.6 561.2,119.7 561.6,108.7 562.0,129.3 562.4,152.7 562.8,163.0 563.2,141.4 563.6,133.8 564.0,135.3 564.4,91.2 564.8,95.3 565.2,107.7 565.6,100.2 566.0,138.3 566.4,120.0 566.8,166.1 567.2,168.8 567.6,172.3 568.0,150.8 568.4,143.5 568.8,129.9 569.1,140.4 569.5,136.0 569.9,108.4 570.3,166.8 570.7,170.8 571.1,153.4 571.5,136.2 571.9,145.2 572.3,116.4 572.7,127.9 573.1,85.2 573.5,96.9 573.9,134.8 574.3,133.0 574.7,132.5 575.1,149.9 575.5,174.0 575.9,190.5 576.3,157.9 576.7,161.3 577.1,178.2 577.4,197.2 577.8,176.9 578.2,117.3 578.6,144.5 579.0,101.1 579.4,161.2 579.8,143.8 580.2,123.2 580.6,179.2 581.0,167.1 581.4,137.4 581.8,179.2 582.2,151.4 582.6,186.6 583.0,189.5 583.4,152.6 583.8,167.3 584.2,183.7 584.6,169.5 585.0,141.3 585.4,171.2 585.7,128.6 586.1,146.7 586.5,160.8 586.9,153.1 587.3,157.7 587.7,144.7 588.1,106.2 588.5,108.4 588.9,122.7 589.3,121.4 589.7,122.8 590.1,131.8 590.5,136.5 590.9,124.6 591.3,119.6 591.7,101.6 592.1,121.1 592.5,99.7 592.9,99.9 593.3,127.3 593.7,130.5 594.0,109.3 594.4,129.3 594.8,115.4 595.2,137.8 595.6,125.8 596.0,129.5 596.4,144.8 596.8,167.8 597.2,135.1 597.6,148.6 598.0,142.2 598.4,144.2 598.8,146.6 599.2,123.5 599.6,125.4 600.0,148.2 600.4,127.1 600.8,132.8 601.2,123.8 601.6,130.9 601.9,153.9 602.3,143.0 602.7,130.0 603.1,150.1 603.5,136.1 603.9,122.6 604.3,151.2 604.7,135.5 605.1,134.3 605.5,146.9 605.9,161.3 606.3,140.1 606.7,128.8 607.1,128.0 607.5,127.5 607.9,135.5 608.3,128.8 608.7,139.4 609.1,142.2 609.5,139.2 609.9,145.0 610.2,135.7 610.6,127.5 611.0,102.7 611.4,113.7 611.8,115.9 612.2,120.8 612.6,77.9 613.0,79.0 613.4,82.3 613.8,112.9 614.2,110.3 614.6,103.9 615.0,132.3 615.4,136.7 615.8,130.8 616.2,117.7 616.6,128.6 617.0,148.4 617.4,159.0 617.8,150.8 618.2,174.5 618.5,176.7 618.9,172.4 619.3,137.5 619.7,139.9 620.1,78.0 620.5,107.7 620.9,50.0 621.3,30.0 621.7,120.3 622.1,123.9 622.5,123.4 622.9,127.9 623.3,133.3 623.7,138.3 624.1,172.7 624.5,203.6 624.9,202.7 625.3,204.5 625.7,195.9 626.1,153.1 626.4,148.0 626.8,176.0 627.2,41.7 627.6,77.5 628.0,141.7 628.4,170.3 628.8,155.7 629.2,148.1 629.6,111.0 630.0,123.1 630.4,105.4 630.8,66.7 631.2,150.9 631.6,180.6 632.0,185.1 632.4,189.1 632.8,145.7 633.2,148.6 633.6,128.5 634.0,59.1 634.4,115.7 634.7,143.5 635.1,178.1 635.5,173.1 635.9,159.7 636.3,111.3 636.7,140.8 637.1,93.5 637.5,84.2 637.9,133.3 638.3,153.7 638.7,152.1 639.1,105.5 639.5,101.9 639.9,111.9 640.3,113.8 640.7,112.3 641.1,91.2 641.5,144.2 641.9,161.6 642.3,156.1 642.7,160.1 643.0,156.4 643.4,151.7 643.8,163.6 644.2,179.1 644.6,182.1 645.0,183.6 645.4,162.0 645.8,174.2 646.2,151.8 646.6,167.2 647.0,53.3 647.4,112.7 647.8,155.1 648.2,189.5 648.6,129.6 649.0,139.3 649.4,165.4 649.8,173.7 650.2,128.9 650.6,110.9 651.0,93.7 651.3,160.7 651.7,143.6 652.1,110.4 652.5,90.9 652.9,144.9 653.3,150.0 653.7,100.7 654.1,129.0 654.5,136.5 654.9,148.1 655.3,111.6 655.7,132.0 656.1,122.5 656.5,125.7 656.9,97.4 657.3,104.5 657.7,92.6 658.1,135.7 658.5,114.2 658.9,89.1 659.2,117.0 659.6,125.6 660.0,141.7 660.4,116.7 660.8,117.5 661.2,121.4 661.6,151.4 662.0,114.6 662.4,142.1 662.8,161.5 663.2,159.5 663.6,154.4 664.0,166.4 664.4,162.8 664.8,184.0 665.2,174.1 665.6,160.0 666.0,148.3 666.4,162.9 666.8,143.6 667.2,163.6 667.5,169.8 667.9,188.2 668.3,161.6 668.7,175.8 669.1,148.5 669.5,165.3 669.9,156.5 670.3,91.1 670.7,109.2 671.1,147.5 671.5,145.4 671.9,120.4 672.3,131.8 672.7,131.1 673.1,143.5 673.5,142.2 673.9,106.2 674.3,157.1 674.7,172.2 675.1,140.9 675.5,144.2 675.8,145.5 676.2,129.3 676.6,129.9 677.0,97.7 677.4,81.3 677.8,131.6 678.2,112.7 678.6,139.1 679.0,142.7 679.4,117.7 679.8,136.0 680.2,125.6 680.6,94.1 681.0,136.7 681.4,122.9 681.8,124.5 682.2,150.3 682.6,111.8 683.0,72.3 683.4,103.3 683.8,114.0 684.1,91.3 684.5,120.0 684.9,135.2 685.3,154.7 685.7,140.9 686.1,105.7 686.5,117.5 686.9,97.5 687.3,93.7 687.7,109.5 688.1,121.6 688.5,123.4 688.9,155.0 689.3,134.4 689.7,152.2 690.1,156.2 690.5,137.5 690.9,133.9 691.3,136.5 691.7,145.0 692.0,55.6 692.4,113.7 692.8,96.7 693.2,104.7 693.6,125.8 694.0,120.0 694.4,141.8 694.8,153.9 695.2,114.7 695.6,118.9 696.0,147.2 696.4,136.8 696.8,145.8 697.2,142.1 697.6,146.6 698.0,127.8 698.4,158.3 698.8,123.9 699.2,165.1 699.6,158.9 700.0,167.6 700.3,184.8 700.7,198.7 701.1,181.3 701.5,200.2 701.9,182.4 702.3,162.0 702.7,180.4 703.1,169.8 703.5,151.7 703.9,188.5 704.3,207.9 704.7,200.2 705.1,196.3 705.5,170.3 705.9,176.4 706.3,170.6 706.7,63.5 707.1,93.8 707.5,157.0 707.9,169.6 708.3,160.7 708.6,137.6 709.0,123.1 709.4,146.4 709.8,121.4 710.2,104.8 710.6,126.4 711.0,132.5 711.4,125.0 711.8,121.6 712.2,105.7 712.6,141.8 713.0,137.9 713.4,88.8 713.8,94.9 714.2,95.3 714.6,107.8 715.0,164.3 715.4,164.9 715.8,171.6 716.2,186.1 716.6,145.0 716.9,154.6 717.3,155.9 717.7,150.5 718.1,50.7 718.5,120.6 718.9,142.8 719.3,146.3 719.7,145.6 720.1,111.4 720.5,107.7 720.9,142.6 721.3,91.8 721.7,119.6 722.1,152.3 722.5,118.6 722.9,147.3 723.3,142.6 723.7,131.8 724.1,150.1 724.5,130.3 724.8,140.2 725.2,162.1 725.6,137.5 726.0,120.5 726.4,137.1 726.8,126.4 727.2,138.3 727.6,152.3 728.0,117.4 728.4,155.1 728.8,169.3 729.2,183.4 729.6,173.4 730.0,173.7 730.4,151.9 730.8,164.7 731.2,165.9 731.6,166.4 732.0,90.6 732.4,92.4 732.8,129.4 733.1,105.0 733.5,95.9 733.9,139.5 734.3,144.2 734.7,120.3 735.1,144.0 735.5,100.5 735.9,128.6 736.3,136.4 736.7,125.3 737.1,96.1 737.5,98.9 737.9,104.8 738.3,123.1 738.7,70.8 739.1,122.5 739.5,125.1 739.9,136.3 740.3,107.3 740.7,135.3 741.1,133.2 741.4,148.7 741.8,115.0 742.2,136.9 742.6,127.5 743.0,136.5 743.4,83.6 743.8,100.7 744.2,89.0 744.6,121.1 745.0,118.6 745.4,105.0 745.8,134.8 746.2,127.8 746.6,138.5 747.0,88.6 747.4,101.3 747.8,68.1 748.2,106.0 748.6,107.8 749.0,107.8 749.4,128.7 749.7,130.2 750.1,108.7 750.5,106.4 750.9,100.2 751.3,122.7 751.7,137.2 752.1,110.1 752.5,133.6 752.9,139.9 753.3,138.7 753.7,119.4 754.1,110.4 754.5,112.2 754.9,136.6 755.3,111.2 755.7,144.1 756.1,147.1 756.5,140.6 756.9,102.3 757.3,110.1 757.6,108.6 758.0,127.5 758.4,114.6 758.8,131.9 759.2,135.9 759.6,147.6 760.0,154.9 760.4,134.0 760.8,114.7 761.2,148.3 761.6,136.1 762.0,121.3 762.4,149.4 762.8,142.6 763.2,158.3 763.6,145.2 764.0,139.2 764.4,161.4 764.8,168.3 765.2,158.1 765.6,148.7 765.9,153.1 766.3,109.9 766.7,136.9 767.1,94.9 767.5,41.9 767.9,136.6 768.3,145.4 768.7,133.1 769.1,149.7 769.5,132.8 769.9,169.0 770.3,154.6 770.7,112.4 771.1,163.0 771.5,156.9 771.9,137.3 772.3,139.0 772.7,102.9 773.1,137.2 773.5,93.9 773.9,80.1 774.2,94.2 774.6,140.2 775.0,114.1 775.4,114.8 775.8,114.2 776.2,121.3 776.6,139.4 777.0,126.6 777.4,137.3 777.8,155.7 778.2,169.5 778.6,140.2 779.0,121.8 779.4,113.9 779.8,125.9 780.2,60.8 780.6,94.2 781.0,137.8 781.4,117.9 781.8,124.6 782.1,119.9 782.5,115.1 782.9,131.8 783.3,132.7 783.7,104.2 784.1,122.8 784.5,114.5 784.9,109.8 785.3,131.6 785.7,126.2 786.1,123.6 786.5,137.8 786.9,127.0 787.3,152.7 787.7,156.8 788.1,170.0 788.5,164.8 788.9,157.4 789.3,158.8 789.7,170.6 790.1,173.5 790.4,184.0 790.8,178.5 791.2,188.8 791.6,163.2 792.0,162.1 792.4,177.1 792.8,159.2 793.2,171.6 793.6,177.1 794.0,189.8 794.4,195.2 794.8,194.4 795.2,186.4 795.6,183.7 796.0,167.0 796.4,154.8 796.8,134.5 797.2,177.1 797.6,161.6 798.0,105.6 798.4,142.2 798.7,144.2 799.1,142.5 799.5,126.3 799.9,142.0 800.3,119.3 800.7,157.3 801.1,111.1 801.5,137.5 801.9,160.4 802.3,157.0 802.7,122.0 803.1,134.9 803.5,120.2 803.9,144.7 804.3,119.7 804.7,125.1 805.1,129.7 805.5,128.4 805.9,111.4 806.3,120.7 806.7,150.0 807.0,131.1 807.4,157.3 807.8,154.6 808.2,157.5 808.6,158.5 809.0,158.4 809.4,144.6 809.8,147.1 810.2,119.7 810.6,120.2 811.0,131.5 811.4,153.8 811.8,146.1 812.2,119.8 812.6,103.0 813.0,114.9 813.4,101.4 813.8,75.5 814.2,132.2 814.6,122.5 814.9,109.2 815.3,108.7 815.7,105.6 816.1,96.0 816.5,98.1 816.9,104.1 817.3,91.6 817.7,106.8 818.1,128.6 818.5,152.6 818.9,138.2 819.3,138.0 819.7,146.0 820.1,142.4 820.5,156.0 820.9,167.4 821.3,165.8 821.7,104.3 822.1,132.3 822.5,118.0 822.9,108.2 823.2,106.7 823.6,78.9 824.0,112.8 824.4,127.2 824.8,125.1 825.2,83.1 825.6,135.8 826.0,141.9 826.4,133.8 826.8,146.1 827.2,114.0 827.6,131.6 828.0,108.8 828.4,103.5 828.8,128.0 829.2,124.3 829.6,122.6 830.0,124.6 830.4,94.7 830.8,78.0 831.2,96.2 831.5,99.8 831.9,124.0 832.3,126.6 832.7,134.1 833.1,134.3 833.5,123.9 833.9,118.1 834.3,110.4 834.7,116.7 835.1,141.1 835.5,148.9 835.9,148.5 836.3,144.6 836.7,107.9 837.1,84.2 837.5,126.3 837.9,159.2 838.3,146.6 838.7,163.7 839.1,159.1 839.5,131.2 839.8,149.5 840.2,134.1 840.6,137.2 841.0,117.1 841.4,99.3 841.8,120.8 842.2,155.8 842.6,140.9 843.0,143.1 843.4,118.3 843.8,123.8 844.2,138.2 844.6,124.5 845.0,118.7 845.4,150.1 845.8,137.4 846.2,152.8 846.6,129.6 847.0,123.5 847.4,146.5 847.7,126.5 848.1,85.9 848.5,122.2 848.9,139.3 849.3,117.1 849.7,128.1 850.1,129.3 850.5,123.9 850.9,133.5 851.3,119.2 851.7,111.1 852.1,125.7 852.5,85.4 852.9,134.7 853.3,101.6 853.7,121.8 854.1,129.2 854.5,120.1 854.9,95.3 855.3,138.0 855.7,128.1 856.0,127.0 856.4,151.9 856.8,143.1 857.2,133.9 857.6,147.6 858.0,128.9 858.4,52.9 858.8,120.3 859.2,108.5 859.6,119.1 860.0,126.9"/>
  <polyline fill="none" stroke="#d62728" stroke-width="2" points="70.0,360.0 70.1,352.8 70.1,352.5 70.2,352.1 70.2,351.5 70.3,350.7 70.3,350.1 70.4,349.5 70.4,348.8 70.4,348.4 70.5,348.2 70.5,347.8 70.6,347.4 70.6,347.1 70.7,346.9 70.7,346.6 70.8,346.2 70.8,346.1 70.9,345.7 70.9,345.6 71.0,345.6 71.0,345.5 71.1,345.3 71.1,345.2 71.2,345.0 71.2,344.7 71.3,344.5 71.3,344.4 71.4,344.2 71.4,344.1 71.5,343.8 71.5,343.6 71.6,343.5 71.6,343.5 71.7,343.4 71.7,343.3 71.8,343.1 71.8,343.1 71.9,343.0 71.9,342.6 72.0,342.6 72.0,342.5 72.1,342.3 72.1,342.4 72.2,342.3 72.2,342.0 72.3,342.0 72.3,341.9 72.4,341.8 72.4,341.5 72.5,341.5 72.5,341.5 72.6,341.5 72.6,341.4 72.7,341.4 72.7,341.3 72.8,341.0 72.8,340.9 72.9,340.8 72.9,340.9 73.0,340.9 73.0,340.8 73.1,340.8 73.1,340.6 73.2,340.6 73.2,340.6 73.3,340.6 73.3,340.8 73.4,340.6 73.4,340.7 73.5,340.5 73.5,340.4 73.6,340.4 73.6,340.3 73.7,340.4 73.7,340.4 73.8,340.3 73.8,340.3 73.9,340.3 73.9,340.2 74.0,340.2 74.0,340.1 74.1,340.2 74.1,340.1 74.2,340.1 74.2,340.1 74.3,339.9 74.3,340.1 74.4,340.0 74.4,340.0 74.5,339.9 74.5,340.0 74.5,340.0 74.6,339.9 74.6,339.7 74.7,339.8 74.7,340.1 74.8,339.9 74.8,339.8 74.9,339.7 74.9,339.6 75.0,339.6 75.0,339.6 75.1,339.7 75.1,339.6 75.2,339.5 75.2,339.4 75.3,339.3 75.3,339.5 75.4,339.3 75.4,339.4 75.5,339.4 75.5,339.4 75.6,339.2 75.6,339.1 75.7,339.1 75.7,338.9 75.8,339.0 75.8,339.0 75.9,338.9 75.9,338.9 76.0,339.1 76.0,338.9 76.1,338.9 76.1,338.9 76.2,338.9 76.2,339.3 76.3,339.1 76.3,339.0 76.4,338.9 76.4,338.8 76.5,339.1 76.5,339.0 76.6,339.0 76.6,338.8 76.7,338.5 76.7,338.7 76.8,338.7 76.8,338.7 76.9,338.6 76.9,338.7 77.0,338.5 77.0,338.3 77.1,338.6 77.1,338.5 77.2,338.5 77.2,338.4 77.3,338.6 77.3,338.6 77.4,338.5 77.4,338.5 77.5,338.4 77.5,338.4 77.6,338.6 77.6,338.5 77.7,338.5 77.7,338.7 77.8,338.6 77.8,338.6 77.9,338.6 77.9,338.5 78.0,338.4 78.0,338.5 78.1,338.5 78.1,338.2 78.2,338.5 78.2,338.1 78.3,338.2 78.3,338.2 78.4,338.2 78.4,338.3 78.5,338.3 78.5,338.4 78.6,338.5 78.6,338.3 78.6,338.4 78.7,338.3 78.7,338.0 78.8,337.9 78.8,338.0 78.9,338.0 78.9,337.9 79.0,337.9 79.0,338.1 79.1,338.0 79.1,337.9 79.2,337.9 79.2,337.7 79.3,337.5 79.3,338.0 79.4,337.9 79.4,338.0 79.5,338.0 79.5,338.1 79.6,338.1 79.6,338.1 79.7,338.4 79.7,338.2 79.8,338.0 79.8,337.8 79.9,337.9 79.9,338.0 80.0,337.7 80.0,337.8 80.1,337.9 80.1,337.9 80.2,337.9 80.2,337.7 80.3,337.7 80.3,337.5 80.4,337.8 80.4,338.0 80.5,338.0 80.5,337.9 80.6,338.1 80.6,337.9 80.7,337.6 80.7,337.6 80.8,337.6 80.8,337.6 80.9,337.7 80.9,337.6 81.0,337.7 81.0,337.8 81.1,337.6 81.1,337.7 81.2,337.6 81.2,337.6 81.3,338.0 81.3,338.0 81.4,337.7 81.4,337.7 81.5,337.7 81.5,337.4 81.6,337.6 81.6,337.6 81.7,337.7 81.7,337.6 81.8,337.6 81.8,337.8 81.9,337.6 81.9,337.3 82.0,337.2 82.0,337.5 82.1,337.5 82.1,337.4 82.2,337.2 82.2,337.4 82.3,337.5 82.3,337.5 82.4,337.5 82.4,337.6 82.5,337.6 82.5,337.5 82.6,337.7 82.6,337.6 82.7,337.4 82.7,337.8 82.7,337.5 82.8,337.5 82.8,337.4 82.9,337.7 82.9,337.7 83.0,337.6 83.0,337.6 83.1,337.5 83.1,337.3 83.2,337.4 83.2,337.3 83.3,337.3 83.3,337.3 83.4,337.5 83.4,337.4 83.5,337.2 83.5,337.3 83.6,337.2 83.6,337.1 83.7,337.0 83.7,337.0 83.8,337.0 83.8,336.8 83.9,336.9 83.9,336.7 84.0,336.7 84.0,336.8 84.1,337.0 84.1,336.7 84.2,337.0 84.2,336.9 84.3,336.9 84.3,337.0 84.4,336.7 84.4,336.8 84.5,336.9 84.5,336.9 84.6,336.8 84.6,337.0 84.7,337.0 84.7,336.9 84.8,337.0 84.8,336.6 84.9,336.7 84.9,336.8 85.0,336.6 85.0,336.8 85.1,336.7 85.1,336.8 85.2,336.8 85.2,336.5 85.3,336.5 85.3,337.0 85.4,336.7 85.4,336.9 85.5,336.7 85.5,336.9 85.6,336.7 85.6,336.7 85.7,336.8 85.7,336.9 85.8,336.9 85.8,337.2 85.9,337.3 85.9,337.6 86.0,337.3 86.0,336.9 86.1,336.7 86.1,336.6 86.2,336.7 86.2,336.6 86.3,336.5 86.3,336.5 86.4,336.6 86.4,336.5 86.5,336.5 86.5,336.7 86.6,336.5 86.6,336.7 86.7,336.7 86.7,337.1 86.8,337.0 86.8,336.8 86.8,336.6 86.9,336.6 86.9,336.8 87.0,336.6 87.0,336.9 87.1,337.0 87.1,337.0 87.2,336.9 87.2,336.8 87.3,337.2 87.3,337.2 87.4,336.6 87.4,336.6 87.5,336.8 87.5,336.8 87.6,336.5 87.6,336.5 87.7,337.0 87.7,337.1 87.8,336.8 87.8,336.4 87.9,336.7 87.9,336.8 88.0,336.8 88.0,337.0 88.1,337.1 88.1,336.9 88.2,336.6 88.2,336.7 88.3,336.5 88.3,336.7 88.4,336.4 88.4,336.6 88.5,336.7 88.5,336.8 88.6,336.7 88.6,336.5 88.7,336.6 88.7,336.3 88.8,336.5 88.8,336.5 88.9,336.5 88.9,336.7 89.0,336.4 89.0,336.4 89.1,336.6 89.1,336.2 89.2,336.2 89.2,336.5 89.3,336.7 89.3,336.3 89.4,336.4 89.4,336.2 89.5,336.2 89.5,336.6 89.6,336.9 89.6,336.8 89.7,336.7 89.7,336.7 89.8,336.4 89.8,336.5 89.9,336.5 89.9,336.6 90.0,336.6 90.0,336.8 90.1,336.7 90.1,336.6 90.2,336.8 90.2,336.5 90.3,336.3 90.3,336.2 90.4,336.0 90.4,336.3 90.5,336.2 90.5,336.1 90.6,336.1 90.6,336.0 90.7,335.9 90.7,336.1 90.8,336.0 90.8,335.9 90.9,335.9 90.9,335.8 90.9,335.7 91.0,335.9 91.0,336.2 91.1,336.7 91.1,336.5 91.2,336.4 91.2,336.3 91.3,336.2 91.3,336.0 91.4,335.8 91.4,336.0 91.5,336.0 91.5,335.9 91.6,336.0 91.6,335.9 91.7,335.9 91.7,335.9 91.8,336.2 91.8,336.4 91.9,336.5 91.9,336.7 92.0,336.5 92.0,336.0 92.1,336.1 92.1,336.6 92.2,336.3 92.2,336.2 92.3,336.4 92.3,336.3 92.4,336.0 92.4,336.1 92.5,336.5 92.5,336.0 92.6,335.9 92.6,336.0 92.7,336.0 92.7,336.3 92.8,336.4 92.8,336.5 92.9,336.2 92.9,336.0 93.0,336.0 93.0,336.1 93.1,336.1 93.1,336.0 93.2,335.9 93.2,336.0 93.3,335.9 93.3,335.9 93.4,336.2 93.4,336.2 93.5,336.0 93.5,336.0 93.6,335.9 93.6,335.8 93.7,336.1 93.7,336.1 93.8,336.0 93.8,335.8 93.9,336.2 93.9,336.0 94.0,336.0 94.0,335.8 94.1,335.9 94.1,335.9 94.2,336.0 94.2,336.1 94.3,335.9 94.3,336.1 94.4,336.2 94.4,336.4 94.5,336.1 94.5,335.9 94.6,335.7 94.6,335.9 94.7,336.6 94.7,336.3 94.8,336.2 94.8,335.9 94.9,336.0 94.9,335.7 95.0,335.6 95.0,335.5 95.0,335.6 95.1,335.9 95.1,335.8 95.2,335.4 95.2,335.4 95.3,335.4 95.3,335.3 95.4,335.6 95.4,335.5 95.5,335.5 95.5,335.5 95.6,335.8 95.6,335.4 95.7,335.3 95.7,335.4 95.8,335.6 95.8,335.5 95.9,335.2 95.9,335.4 96.0,335.5 96.0,335.3 96.1,335.3 96.1,336.0 96.2,335.9 96.2,335.5 96.3,335.7 96.3,335.5 96.4,335.1 96.4,335.4 96.5,335.4 96.5,335.2 96.6,335.1 96.6,335.0 96.7,335.3 96.7,335.2 96.8,335.1 96.8,334.9 96.9,335.0 96.9,335.0 97.0,334.9 97.0,334.8 97.1,335.2 97.1,334.8 97.2,335.4 97.2,335.0 97.3,334.9 97.3,334.9 97.4,334.8 97.4,335.3 97.5,335.1 97.5,335.0 97.6,336.1 97.6,335.5 97.7,335.2 97.7,335.3 97.8,335.1 97.8,335.2 97.9,335.1 97.9,335.0 98.0,334.9 98.0,334.7 98.1,334.9 98.1,335.5 98.2,335.3 98.2,335.2 98.3,335.3 98.3,335.0 98.4,334.6 98.4,334.6 98.5,334.7 98.5,334.9 98.6,334.4 98.6,334.9 98.7,334.9 98.7,334.5 98.8,334.2 98.8,334.5 98.9,334.2 98.9,334.0 99.0,333.6 99.0,333.7 99.1,333.6 99.1,334.0 99.1,334.0 99.2,334.0 99.2,334.2 99.3,334.4 99.3,333.9 99.4,333.7 99.4,334.1 99.5,334.4 99.5,334.0 99.6,334.1 99.6,333.6 99.7,333.8 99.7,334.0 99.8,334.0 99.8,333.4 99.9,333.6 99.9,333.1 100.0,333.7 100.0,333.9 100.1,334.1 100.1,334.3 100.2,333.6 100.2,333.7 100.3,333.7 100.3,333.6 100.4,333.7 100.4,333.5 100.5,333.2 100.5,333.5 100.6,333.4 100.6,333.3 100.7,333.7 100.7,333.8 100.8,333.3 100.8,333.5 100.9,333.2 100.9,333.1 101.0,332.9 101.0,332.9 101.1,332.7 101.1,332.9 101.2,333.0 101.2,333.6 101.3,333.7 101.3,333.6 101.4,333.6 101.4,333.3 101.5,333.6 101.5,332.8 101.6,332.9 101.6,333.0 101.7,332.6 101.7,333.1 101.8,333.3 101.8,333.0 101.9,333.1 101.9,333.3 102.0,333.0 102.0,332.8 102.1,333.3 102.1,332.7 102.2,333.2 102.2,333.0 102.3,333.2 102.3,332.9 102.4,332.8 102.4,333.1 102.5,332.5 102.5,332.3 102.6,332.6 102.6,332.1 102.7,332.0 102.7,332.1 102.8,331.8 102.8,332.2 102.9,331.7 102.9,331.9 103.0,331.5 103.0,331.5 103.1,332.0 103.1,332.1 103.2,332.4 103.2,331.5 103.2,331.5 103.3,332.8 103.3,331.7 103.4,331.0 103.4,331.1 103.5,330.9 103.5,331.5 103.6,330.5 103.6,330.5 103.7,330.1 103.7,329.8 103.8,330.5 103.8,330.2 103.9,329.4 103.9,330.0 104.0,330.0 104.0,330.0 104.1,329.5 104.1,329.8 104.2,331.1 104.2,331.8 104.3,330.3 104.3,330.5 104.4,330.7 104.4,330.2 104.5,330.2 104.5,328.9 104.6,328.7 104.6,329.3 104.7,329.0 104.7,329.0 104.8,328.4 104.8,329.5 104.9,328.8 104.9,329.0 105.0,327.9 105.0,328.0 105.1,328.6 105.1,327.4 105.2,327.5 105.2,327.8 105.3,327.9 105.3,327.4 105.4,327.0 105.4,327.4 105.5,327.8 105.5,327.9 105.6,327.0 105.6,327.8 105.7,327.4 105.7,327.2 105.8,327.1 105.8,326.3 105.9,326.8 105.9,326.6 106.0,326.1 106.0,325.1 106.1,324.5 106.1,325.7 106.2,325.4 106.2,325.3 106.3,324.2 106.3,323.7 106.4,323.5 106.4,323.8 106.5,323.7 106.5,324.5 106.6,324.5 106.6,323.6 106.7,324.0 106.7,323.2 106.8,323.9 106.8,322.9 106.9,323.9 106.9,323.1 107.0,324.2 107.0,324.0 107.1,322.9 107.1,323.6 107.2,322.8 107.2,324.6 107.3,324.8 107.3,325.0 107.3,324.8 107.4,324.3 107.4,324.1 107.5,323.7 107.5,323.4 107.6,324.1 107.6,324.0 107.7,323.0 107.7,326.1 107.8,325.7 107.8,327.1 107.9,327.6 107.9,326.6 108.0,324.2 108.0,323.8 108.1,324.1 108.1,323.9 108.2,324.0 108.2,322.8 108.3,324.2 108.3,324.0 108.4,322.0 108.4,323.5 108.5,324.7 108.5,325.5 108.6,324.4 108.6,325.3 108.7,325.3 108.7,324.1 108.8,323.4 108.8,324.5 108.9,322.4 108.9,323.1 109.0,322.6 109.0,322.7 109.1,323.0 109.1,321.9 109.2,323.2 109.2,322.9 109.3,321.7 109.3,321.1 109.4,321.7 109.4,320.5 109.5,320.5 109.5,320.6 109.6,320.9 109.6,322.1 109.7,322.1 109.7,321.8 109.8,321.7 109.8,321.2 109.9,322.6 109.9,323.2 110.0,322.6 110.0,324.1 110.1,322.9 110.1,323.6 110.2,323.6 110.2,321.6 110.3,321.7 110.3,323.6 110.4,322.8 110.4,322.0 110.5,322.1 110.5,321.2 110.6,321.7 110.6,323.4 110.7,321.6 110.7,322.1 110.8,322.1 110.8,321.7 110.9,321.3 110.9,321.1 111.0,321.0 111.0,321.4 111.1,321.9 111.1,320.6 111.2,321.7 111.2,320.8 111.3,319.4 111.3,318.7 111.4,319.7 111.4,319.9 111.4,320.6 111.5,320.9 111.5,322.0 111.6,320.3 111.6,322.4 111.7,320.5 111.7,321.4 111.8,320.3 111.8,321.6 111.9,320.2 111.9,320.4 112.0,320.9 112.0,319.9 112.1,322.2 112.1,323.2 112.2,322.7 112.2,322.5 112.3,320.2 112.3,319.7 112.4,321.1 112.4,319.9 112.5,320.3 112.5,321.6 112.6,321.8 112.6,320.5 112.7,321.2 112.7,323.0 112.8,322.4 112.8,321.6 112.9,322.3 112.9,321.2 113.0,320.2 113.0,321.3 113.1,318.7 113.1,322.3 113.2,320.5 113.2,323.7 113.3,323.8 113.3,322.8 113.4,320.8 113.4,321.2 113.5,321.1 113.5,319.4 113.6,317.8 113.6,321.1 113.7,320.6 113.7,318.8 113.8,320.8 113.8,320.9 113.9,320.0 113.9,320.1 114.0,321.7 114.0,321.5 114.1,321.1 114.1,319.1 114.2,319.3 114.2,319.8 114.3,316.8 114.3,318.4 114.4,317.5 114.4,316.6 114.5,316.6 114.5,318.6 114.6,318.2 114.6,316.9 114.7,319.7 114.7,318.8 114.8,317.8 114.8,318.1 114.9,316.5 114.9,318.3 115.0,316.8 115.0,317.1 115.1,315.4 115.1,316.2 115.2,315.3 115.2,313.0 115.3,315.3 115.3,313.5 115.4,315.2 115.4,315.4 115.5,313.6 115.5,313.0 115.5,315.0 115.6,318.0 115.6,316.9 115.7,316.4 115.7,315.7 115.8,317.7 115.8,315.9 115.9,314.6 115.9,314.4 116.0,313.1 116.0,315.7 116.1,316.2 116.1,315.2 116.2,314.0 116.2,315.8 116.3,316.1 116.3,318.9 116.4,321.1 116.4,321.1 116.5,322.0 116.5,321.2 116.6,318.7 116.6,315.6 116.7,318.0 116.7,320.9 116.8,319.7 116.8,316.8 116.9,322.4 116.9,320.4 117.0,317.6 117.0,315.6 117.1,316.0 117.1,317.9 117.2,317.7 117.2,317.6 117.3,316.2 117.3,315.9 117.4,319.1 117.4,318.1 117.5,316.6 117.5,317.4 117.6,318.3 117.6,318.1 117.7,317.1 117.7,314.9 117.8,315.1 117.8,315.6 117.9,313.3 117.9,312.1 118.0,315.7 118.0,314.6 118.1,314.6 118.1,315.7 118.2,315.3 118.2,313.6 118.3,313.7 118.3,313.6 118.4,316.2 118.4,321.6 118.5,323.0 118.5,319.7 118.6,317.8 118.6,316.6 118.7,314.6 118.7,314.1 118.8,312.8 118.8,317.8 118.9,319.5 118.9,318.4 119.0,315.1 119.0,311.7 119.1,314.6 119.1,314.6 119.2,313.0 119.2,314.4 119.3,311.5 119.3,315.0 119.4,321.3 119.4,319.3 119.5,316.9 119.5,315.8 119.6,315.2 119.6,314.9 119.6,313.7 119.7,313.7 119.7,314.4 119.8,314.0 119.8,315.9 119.9,315.8 119.9,315.0 120.0,314.6 120.0,312.1 120.1,312.4 120.1,313.1 120.2,313.9 120.2,314.1 120.3,314.8 120.3,314.3 120.4,318.3 120.4,318.9 120.5,316.4 120.5,316.5 120.6,316.9 120.6,315.4 120.7,314.3 120.7,314.5 120.8,314.0 120.8,313.2 120.9,314.2 120.9,314.6 121.0,316.0 121.0,316.3 121.1,314.7 121.1,313.7 121.2,314.8 121.2,313.4 121.3,314.8 121.3,311.0 121.4,312.1 121.4,312.8 121.5,312.7 121.5,313.0 121.6,314.0 121.6,323.1 121.7,319.8 121.7,316.2 121.8,314.4 121.8,312.0 121.9,316.3 121.9,314.5 122.0,319.1 122.0,320.6 122.1,319.1 122.1,316.8 122.2,314.3 122.2,312.9 122.3,312.5 122.3,312.9 122.4,310.9 122.4,311.8 122.5,311.6 122.5,312.4 122.6,313.4 122.6,311.1 122.7,312.0 122.7,314.1 122.8,313.5 122.8,315.3 122.9,313.1 122.9,312.3 123.0,313.4 123.0,316.3 123.1,318.6 123.1,317.2 123.2,314.5 123.2,314.1 123.3,313.4 123.3,311.7 123.4,309.8 123.4,311.2 123.5,314.1 123.5,314.9 123.6,312.4 123.6,309.9 123.7,315.1 123.7,317.3 123.7,317.6 123.8,312.7 123.8,312.2 123.9,315.0 123.9,316.7 124.0,316.9 124.0,315.4 124.1,316.6 124.1,314.9 124.2,313.1 124.2,313.4 124.3,313.0 124.3,313.4 124.4,313.2 124.4,314.2 124.5,315.2 124.5,315.3 124.6,313.8 124.6,316.1 124.7,319.9 124.7,318.1 124.8,316.2 124.8,315.8 124.9,321.5 124.9,320.4 125.0,319.3 125.0,315.1 125.1,317.3 125.1,316.8 125.2,314.1 125.2,314.1 125.3,312.9 125.3,312.9 125.4,314.2 125.4,315.1 125.5,316.2 125.5,315.5 125.6,315.3 125.6,314.1 125.7,314.4 125.7,314.7 125.8,313.9 125.8,313.2 125.9,313.6 125.9,312.6 126.0,314.3 126.0,314.4 126.1,315.7 126.1,314.6 126.2,315.4 126.2,313.6 126.3,315.9 126.3,315.1 126.4,314.7 126.4,315.6 126.5,312.4 126.5,311.7 126.6,315.2 126.6,316.6 126.7,317.1 126.7,317.4 126.8,318.9 126.8,315.4 126.9,315.6 126.9,316.8 127.0,319.6 127.0,318.6 127.1,318.1 127.1,317.7 127.2,315.7 127.2,317.0 127.3,317.6 127.3,313.7 127.4,315.1 127.4,315.3 127.5,315.7 127.5,316.5 127.6,316.6 127.6,313.8 127.7,315.8 127.7,314.9 127.8,314.0 127.8,312.7 127.8,309.5 127.9,313.8 127.9,314.8 128.0,313.6 128.0,315.2 128.1,316.2 128.1,314.8 128.2,311.7 128.2,317.4 128.3,314.5 128.3,315.1 128.4,315.9 128.4,317.0 128.5,322.4 128.5,320.2 128.6,316.3 128.6,316.1 128.7,316.8 128.7,315.4 128.8,314.1 128.8,315.3 128.9,315.3 128.9,315.8 129.0,314.9 129.0,314.7 129.1,315.2 129.1,315.3 129.2,314.6 129.2,313.5 129.3,315.7 129.3,316.2 129.4,317.5 129.4,318.4 129.5,316.3 129.5,317.1 129.6,321.4 129.6,318.0 129.7,318.2 129.7,318.7 129.8,317.2 129.8,320.5 129.9,319.0 129.9,317.8 130.0,317.3 130.0,316.5 130.1,318.0 130.1,318.7 130.2,315.1 130.2,314.4 130.3,315.2 130.3,314.4 130.4,315.8 130.4,317.1 130.5,312.3 130.5,314.7 130.6,319.6 130.6,314.5 130.7,315.7 130.7,313.5 130.8,316.9 130.8,314.7 130.9,313.2 130.9,315.2 131.0,314.9 131.0,317.7 131.1,314.4 131.1,316.3 131.2,313.7 131.2,313.9 131.3,314.8 131.3,315.4 131.4,314.9 131.4,317.0 131.5,319.6 131.5,323.4 131.6,320.0 131.6,318.3 131.7,316.6 131.7,314.8 131.8,312.5 131.8,313.3 131.9,314.2 131.9,316.4 131.9,317.1 132.0,318.4 132.0,317.7 132.1,316.7 132.1,318.4 132.2,317.8 132.2,315.5 132.3,313.9 132.3,311.9 132.4,310.6 132.4,311.3 132.5,310.2 132.5,313.8 132.6,313.3 132.6,311.8 132.7,310.0 132.7,311.1 132.8,307.6 132.8,309.8 132.9,309.5 132.9,311.5 133.0,310.9 133.0,308.5 133.1,308.3 133.1,310.2 133.2,311.5 133.2,310.2 133.3,308.5 133.3,310.2 133.4,308.4 133.4,306.7 133.5,313.8 133.5,315.5 133.6,312.2 133.6,314.1 133.7,313.0 133.7,312.4 133.8,309.6 133.8,309.2 133.9,312.0 133.9,310.7 134.0,311.4 134.0,313.4 134.1,312.4 134.1,310.5 134.2,312.2 134.2,311.9 134.3,310.7 134.3,311.1 134.4,310.9 134.4,313.0 134.5,313.7 134.5,312.9 134.6,313.2 134.6,315.0 134.7,315.4 134.7,314.2 134.8,316.6 134.8,315.4 134.9,315.4 134.9,314.0 135.0,310.2 135.0,312.2 135.1,310.2 135.1,310.2 135.2,313.1 135.2,313.0 135.3,313.2 135.3,314.6 135.4,315.6 135.4,314.2 135.5,314.7 135.5,314.0 135.6,315.1 135.6,313.0 135.7,314.8 135.7,321.5 135.8,320.9 135.8,318.6 135.9,318.2 135.9,316.6 136.0,314.0 136.0,313.6 136.0,311.9 136.1,309.6 136.1,308.9 136.2,309.0 136.2,310.6 136.3,308.3 136.3,306.8 136.4,310.3 136.4,309.7 136.5,310.7 136.5,309.7 136.6,308.2 136.6,307.6 136.7,312.9 136.7,313.9 136.8,312.8 136.8,316.1 136.9,312.2 136.9,313.0 137.0,314.2 137.0,313.9 137.1,311.5 137.1,312.0 137.2,312.7 137.2,312.8 137.3,313.3 137.3,310.4 137.4,316.5 137.4,317.2 137.5,316.1 137.5,316.2 137.6,315.0 137.6,311.6 137.7,313.6 137.7,314.6 137.8,312.6 137.8,311.6 137.9,311.4 137.9,311.3 138.0,310.4 138.0,312.5 138.1,312.4 138.1,315.5 138.2,312.4 138.2,316.2 138.3,313.1 138.3,316.7 138.4,314.1 138.4,312.5 138.5,312.0 138.5,312.6 138.6,310.6 138.6,313.5 138.7,311.2 138.7,309.2 138.8,309.7 138.8,316.9 138.9,313.1 138.9,315.0 139.0,315.5 139.0,315.4 139.1,316.0 139.1,316.4 139.2,314.3 139.2,312.2 139.3,311.4 139.3,311.0 139.4,308.7 139.4,311.9 139.5,313.7 139.5,315.6 139.6,315.9 139.6,315.0 139.7,314.7 139.7,311.9 139.8,311.7 139.8,314.4 139.9,314.5 139.9,312.1 140.0,309.5 140.0,314.4 140.1,317.8 140.1,320.4 140.1,317.8 140.2,316.5 140.2,313.9 140.3,317.7 140.3,316.5 140.4,314.6 140.4,315.6 140.5,313.3 140.5,312.6 140.6,313.4 140.6,310.7 140.7,309.9 140.7,311.1 140.8,312.2 140.8,312.7 140.9,311.8 140.9,312.2 141.0,311.9 141.0,310.2 141.1,310.8 141.1,311.8 141.2,313.6 141.2,309.8 141.3,309.3 141.3,311.9 141.4,311.1 141.4,312.0 141.5,311.8 141.5,314.0 141.6,313.1 141.6,311.0 141.7,312.7 141.7,314.9 141.8,317.6 141.8,315.9 141.9,314.8 141.9,316.0 142.0,316.8 142.0,316.2 142.1,313.3 142.1,315.1 142.2,313.6 142.2,313.3 142.3,311.1 142.3,312.3 142.4,311.7 142.4,315.0 142.5,313.3 142.5,313.4 142.6,312.8 142.6,311.9 142.7,311.6 142.7,309.6 142.8,308.9 142.8,310.5 142.9,314.9 142.9,313.5 143.0,313.8 143.0,314.0 143.1,311.8 143.1,312.8 143.2,311.5 143.2,312.3 143.3,311.7 143.3,309.9 143.4,311.1 143.4,311.6 143.5,311.2 143.5,311.5 143.6,311.1 143.6,312.4 143.7,311.2 143.7,311.9 143.8,311.7 143.8,313.0 143.9,311.3 143.9,312.2 144.0,312.4 144.0,311.8 144.1,312.9 144.1,311.6 144.2,315.2 144.2,313.1 144.2,309.8 144.3,310.0 144.3,310.0 144.4,312.2 144.4,313.1 144.5,311.5 144.5,310.1 144.6,310.8 144.6,309.3 144.7,312.3 144.7,310.6 144.8,309.9 144.8,309.8 144.9,308.7 144.9,307.8 145.0,308.2 145.0,307.3 145.1,307.8 145.1,311.5 145.2,311.4 145.2,306.9 145.3,310.5 145.3,312.2 145.4,311.1 145.4,311.3 145.5,312.3 145.5,315.9 145.6,312.8 145.6,313.9 145.7,312.1 145.7,316.0 145.8,318.1 145.8,318.9 145.9,316.0 145.9,314.7 146.0,312.8 146.0,312.1 146.1,314.2 146.1,313.1 146.2,310.7 146.2,312.4 146.3,311.5 146.3,312.4 146.4,310.7 146.4,310.2 146.5,312.7 146.5,313.0 146.6,312.0 146.6,312.2 146.7,312.8 146.7,307.3 146.8,313.2 146.8,309.9 146.9,311.7 146.9,311.5 147.0,313.0 147.0,312.9 147.1,313.5 147.1,312.2 147.2,313.9 147.2,316.8 147.3,313.5 147.3,315.1 147.4,315.8 147.4,314.6 147.5,311.9 147.5,312.6 147.6,312.4 147.6,311.7 147.7,309.2 147.7,308.4 147.8,308.6 147.8,311.5 147.9,312.0 147.9,312.7 148.0,312.4 148.0,311.9 148.1,311.3 148.1,311.4 148.2,313.8 148.2,313.9 148.3,311.1 148.3,310.8 148.3,311.2 148.4,312.0 148.4,310.2 148.5,311.3 148.5,312.2 148.6,310.4 148.6,308.9 148.7,311.3 148.7,309.1 148.8,309.2 148.8,308.6 148.9,310.1 148.9,307.9 149.0,313.4 149.0,312.9 149.1,314.6 149.1,312.4 149.2,312.2 149.2,314.8 149.3,310.8 149.3,313.4 149.4,309.7 149.4,310.7 149.5,310.6 149.5,309.7 149.6,312.3 149.6,313.3 149.7,314.5 149.7,312.1 149.8,313.9 149.8,316.6 149.9,311.9 149.9,312.6 150.0,311.3 150.0,311.7 150.1,312.3 150.1,312.2 150.2,312.3 150.2,311.1 150.3,312.6 150.3,311.8 150.4,312.3 150.4,310.3 150.5,313.0 150.5,310.3 150.6,310.2 150.6,310.5 150.7,308.3 150.7,308.7 150.8,308.3 150.8,309.5 150.9,310.3 150.9,312.6 151.0,309.6 151.0,311.2 151.1,309.7 151.1,303.9 151.2,308.0 151.2,310.2 151.3,307.3 151.3,306.3 151.4,313.1 151.4,316.0 151.5,313.4 151.5,310.6 151.6,307.4 151.6,307.9 151.7,306.5 151.7,310.3 151.8,304.1 151.8,304.1 151.9,303.7 151.9,307.7 152.0,309.0 152.0,307.4 152.1,305.6 152.1,308.8 152.2,307.0 152.2,308.2 152.3,305.3 152.3,308.2 152.4,311.4 152.4,311.2 152.4,313.2 152.5,311.5 152.5,311.9 152.6,311.3 152.6,310.1 152.7,311.0 152.7,310.2 152.8,309.2 152.8,311.1 152.9,310.7 152.9,311.6 153.0,312.6 153.0,310.9 153.1,308.5 153.1,310.8 153.2,311.4 153.2,314.7 153.3,310.8 153.3,311.9 153.4,310.4 153.4,310.2 153.5,307.6 153.5,310.8 153.6,307.3 153.6,309.1 153.7,309.0 153.7,309.8 153.8,311.3 153.8,310.8 153.9,310.6 153.9,311.8 154.0,310.5 154.0,309.4 154.1,312.7 154.1,311.4 154.2,310.5 154.2,314.3 154.3,309.9 154.3,312.2 154.4,309.2 154.4,307.9 154.5,306.1 154.5,307.8 154.6,303.5 154.6,308.0 154.7,307.2 154.7,307.0 154.8,307.8 154.8,308.9 154.9,310.2 154.9,310.6 155.0,307.7 155.0,309.1 155.1,308.2 155.1,308.7 155.2,309.0 155.2,307.3 155.3,311.9 155.3,307.5 155.4,310.9 155.4,309.8 155.5,308.9 155.5,307.4 155.6,310.1 155.6,306.6 155.7,305.4 155.7,311.4 155.8,312.1 155.8,312.0 155.9,311.0 155.9,311.6 156.0,315.5 156.0,312.1 156.1,310.7 156.1,313.3 156.2,313.0 156.2,313.7 156.3,312.4 156.3,316.0 156.4,313.4 156.4,311.9 156.5,314.6 156.5,310.8 156.5,312.4 156.6,307.4 156.6,313.9 156.7,311.3 156.7,311.0 156.8,309.0 156.8,315.2 156.9,314.3 156.9,312.6 157.0,311.5 157.0,311.2 157.1,312.4 157.1,312.4 157.2,309.6 157.2,307.9 157.3,308.8 157.3,308.6 157.4,308.2 157.4,308.3 157.5,310.3 157.5,311.5 157.6,311.6 157.6,310.4 157.7,311.6 157.7,311.7 157.8,308.4 157.8,309.8 157.9,310.0 157.9,310.3 158.0,310.2 158.0,310.7 158.1,307.8 158.1,309.5 158.2,310.6 158.2,309.7 158.3,309.9 158.3,312.9 158.4,309.9 158.4,310.9 158.5,309.4 158.5,307.0 158.6,312.4 158.6,311.7 158.7,311.9 158.7,308.3 158.8,308.4 158.8,310.9 158.9,314.9 158.9,311.3 159.0,312.0 159.0,310.9 159.1,309.7 159.1,308.4 159.2,308.4 159.2,310.4 159.3,311.9 159.3,312.4 159.4,312.6 159.4,314.4 159.5,312.0 159.5,316.3 159.6,314.9 159.6,313.2 159.7,317.4 159.7,313.9 159.8,313.7 159.8,313.5 159.9,308.2 159.9,308.3 160.0,309.2 160.0,314.5 160.1,313.8 160.1,312.9 160.2,313.6 160.2,311.8 160.3,309.7 160.3,310.7 160.4,305.6 160.4,309.3 160.5,309.8 160.5,306.2 160.6,310.3 160.6,307.0 160.6,307.8 160.7,306.7 160.7,300.8 160.8,301.7 160.8,309.7 160.9,308.7 160.9,309.0 161.0,306.1 161.0,306.5 161.1,306.9 161.1,305.4 161.2,302.8 161.2,302.3 161.3,303.3 161.3,306.4 161.4,306.8 161.4,304.1 161.5,306.6 161.5,308.4 161.6,303.9 161.6,304.7 161.7,302.5 161.7,303.0 161.8,305.7 161.8,305.3 161.9,304.8 161.9,304.0 162.0,301.9 162.0,302.9 162.1,305.0 162.1,305.2 162.2,307.2 162.2,306.8 162.3,302.2 162.3,300.9 162.4,304.6 162.4,302.4 162.5,304.1 162.5,304.7 162.6,303.9 162.6,303.2 162.7,303.2 162.7,301.3 162.8,301.5 162.8,305.2 162.9,305.1 162.9,309.2 163.0,307.3 163.0,305.3 163.1,308.6 163.1,306.8 163.2,303.7 163.2,303.2 163.3,307.8 163.3,307.5 163.4,304.0 163.4,304.3 163.5,302.7 163.5,306.0 163.6,306.9 163.6,304.7 163.7,303.6 163.7,301.2 163.8,303.4 163.8,304.6 163.9,307.5 163.9,307.7 164.0,309.0 164.0,309.0 164.1,308.1 164.1,307.8 164.2,308.2 164.2,304.5 164.3,305.4 164.3,304.9 164.4,299.3 164.4,311.1 164.5,313.5 164.5,314.6 164.6,311.7 164.6,310.4 164.7,309.1 164.7,307.1 164.7,307.1 164.8,304.7 164.8,307.7 164.9,306.2 164.9,307.1 165.0,306.8 165.0,310.3 165.1,309.9 165.1,312.9 165.2,307.0 165.2,311.3 165.3,310.0 165.3,311.7 165.4,308.7 165.4,311.7 165.5,311.8 165.5,312.8 165.6,310.3 165.6,316.1 165.7,311.0 165.7,311.3 165.8,311.7 165.8,311.5 165.9,310.7 165.9,308.7 166.0,306.9 166.0,308.3 166.1,308.3 166.1,308.4 166.2,309.7 166.2,310.3 166.3,309.7 166.3,309.8 166.4,307.6 166.4,307.7 166.5,308.7 166.5,310.0 166.6,306.7 166.6,310.4 166.7,312.3 166.7,310.5 166.8,312.1 166.8,313.1 166.9,311.6 166.9,310.2 167.0,310.1 167.0,310.3 167.1,309.2 167.1,313.8 167.2,307.5 167.2,308.7 167.3,310.0 167.3,310.5 167.4,307.1 167.4,306.2 167.5,305.9 167.5,309.2 167.6,311.0 167.6,308.5 167.7,307.7 167.7,309.8 167.8,312.3 167.8,310.5 167.9,307.5 167.9,308.8 168.0,310.8 168.0,311.1 168.1,306.0 168.1,305.1 168.2,305.9 168.2,306.0 168.3,306.6 168.3,306.3 168.4,309.7 168.4,312.1 168.5,311.7 168.5,309.5 168.6,310.8 168.6,308.6 168.7,307.9 168.7,310.7 168.8,311.1"/>
  <text x="100" y="390" font-family="monospace" font-size="13" fill="#1f77b4">blue: pretrained</text>
  <text x="300" y="390" font-family="monospace" font-size="13" fill="#d62728">red: 1/8-budget train</text>
  <text x="70" y="377" font-family="monospace" font-size="11">25.5</text>
  <text x="70" y="42" font-family="monospace" font-size="11">1677.6</text>
</svg>
